<?xml version="1.0" encoding="utf-8"?>
<!-- Generator: Adobe Illustrator 28.4.1, SVG Export Plug-In . SVG Version: 6.00 Build 0)  -->
<svg version="1.1" id="Capa_1" xmlns="http://www.w3.org/2000/svg" xmlns:xlink="http://www.w3.org/1999/xlink" x="0px" y="0px"
	 viewBox="0 0 1920 1080" style="enable-background:new 0 0 1920 1080;" xml:space="preserve">
<style type="text/css">
	.st0{fill:#070328;}
	.st1{fill:#5B090C;}
</style>
<g id="Capa_2_00000054981522075471041210000012602046740877160346_">
	<path class="st0" d="M586.3,344c-1.8-6.1-8.1-8.6-12.8-5.1c-13.5,9.8-26.7,19.2-39.4,29.3c-19.2,15.3-38.7,30.2-56.7,47.4
		c-41.2,39.4-54,90.6-23.4,146c23.5,42.5,56.4,75.4,89,108.4c9.3,9.4,18.5,18.8,27.4,28.7c4.1,4.6,3.4,9.9-0.9,14.4
		c-10,10.6-20.2,21-30,31.9c-61.8,68-134.7,110.3-220.7,115.5c-99.6,6.1-182.3-35.7-242.9-128.5c-34.4-52.6-51.3-112.9-56.3-178.2
		c-5.5-72.5,7.5-140.9,31.6-207.3c5.1-14.1,19.5-21.8,34.5-18.9c14.4,2.8,23.6,14.6,26.2,29.3c2.6,14.9-3.9,26.1-8.8,37.8
		c-18.2,43.5-25.6,89.5-23,137.2c1.3,24.3,6.1,48.3,9.9,72.3c0.3,1.9,0.9,3.8,1.6,5.7c2.2,5.5,8.1,7.5,12.5,4.3
		c10.6-7.9,20.7-15.3,30.5-23.2c21-17.2,42.7-33.6,62.3-52.7c42.6-41.5,49.5-94.3,17.2-147c-20.8-33.9-47.4-61.5-74.2-88.9
		c-7.9-8.1-17.4-14.5-24.8-23.1c-6.6-7.6-12.8-16.6-16.6-26.3c-4.3-10.8-2.5-21.8,5.3-31.5c30.9-38.3,66-70.9,106.4-94.4
		C291.8,79.6,377.4,64,465.5,99c93.3,37.1,153.7,113,182.6,220.9c22.3,83.2,17.7,166.3-5.7,248.3c-5.1,17.9-11.3,35.6-18.8,52.4
		c-7,15.8-29,19.6-45.2,9.7c-13.2-8.1-19.5-29.1-12.7-45c18.4-43.3,31.1-88.5,32.8-137C599.7,412.9,596.7,378.2,586.3,344z
		 M368.2,391.4c0.8,0,1.6-0.1,2.3-0.3c9-2.5,23.5-4.7,36.2-11.2c22.5-11.5,43.9-25.8,65.7-39.3c26.7-16.6,53.2-33.5,79.7-50.2
		c7.9-5,8.2-9.9,2.6-18.5c-14.4-22.2-31.6-40.5-50.7-57.1c-16.8-14.6-43.2-18.7-61-6.4c-22.1,15.3-43.6,31.8-65.7,46.9
		c-12.9,8.8-26,19.3-40.3,23.3c-34.6,9.8-69.1,5.9-102.2-10.6c-21.1-10.5-42.6-20.3-64.1-29.7c-0.5-0.2-1.1-0.4-1.7-0.4
		c-5.7-0.6-10.2,5.8-8.9,12.4c0.2,1.2,0.6,2.2,1.2,3c7.8,10.4,16.2,20.6,25.4,29.4c20.4,19.5,41,38.6,62.2,56.9
		C282.7,368.5,319.3,389.5,368.2,391.4z M366.4,664.6c0.3,0,0.6,0,0.9,0c1.8-0.1,3.6-0.3,5.3-0.2c30.4,1.3,57.8,14.3,85.1,28.4
		c12.5,6.4,25.6,11.6,38.8,15.7c8.5,2.6,11.9-3.2,7.7-12c-3-6.1-6.9-11.9-11.4-16.6c-12.1-12.4-24.2-24.8-37.2-35.8
		c-28-23.6-54.1-50.2-86.5-66.3c-38-19-75.9-22.5-113.7-1c-19.3,11-37.7,24.1-56.4,36.3c-25.2,16.4-50.3,33-75.6,49
		c-5.7,3.7-6.4,6.4-2.5,12.7c14.1,23,31.7,41.5,51.1,58.5c17.6,15.4,36.5,18,55.3,7.2c18.3-10.6,35.1-24.7,52.5-37.3
		C306.3,683.8,332.4,662.4,366.4,664.6z"/>
</g>
<path class="st1" d="M781.9,594.6v135.8c0,12.3-8.2,22.6-19,23.8c-5.1,0.6-9.9,0.8-14.6,0.8c-59.9,0-109.9-24.4-149.9-73.3
	c-40-48.9-59.9-110.1-59.9-183.8c0-71.6,20.2-132.4,60.5-182.3c40.4-49.9,89.5-74.8,147.3-74.8c64.5,0,115.3,23.4,152.5,70.1
	s55.8,110.5,55.8,191.4v218.3c0,13.2-9.4,23.9-20.9,23.9H826c-11.6,0-20.9-10.7-20.9-23.9V515.8c0-26.1-5.1-46.9-15.4-62.4
	c-10.3-15.5-24.1-23.3-41.4-23.3c-15.7,0-29.3,7.1-40.8,21.3c-11.5,14.2-17.2,31-17.2,50.5c0,20.5,5.2,37.3,15.6,50.5
	c10.4,13.2,23.6,19.8,39.6,19.8c4.1,0,8.1-0.4,12-1.3C770.2,568.3,781.9,579.8,781.9,594.6z"/>
<g>
	<path class="st0" d="M1262.9,744.7h-144.5V465.8c0-28.4-9.2-42.6-27.4-42.6c-18,0-27.1,14.2-27.1,42.6v278.9H919.3V469.3
		c0-64.4,16.6-118.6,49.9-162.7c33.2-44.1,73.9-66.1,122.1-66.1c55.1,0,99.3,25.6,132.6,76.8c26,40,39,95.6,39,166.9V744.7z"/>
	<path class="st0" d="M1581,744.7h-144.5V465.8c0-28.4-9.2-42.6-27.4-42.6c-18,0-27.1,14.2-27.1,42.6v278.9h-144.5V469.3
		c0-64.4,16.6-118.6,49.9-162.7c33.2-44.1,73.9-66.1,122.1-66.1c55.1,0,99.3,25.6,132.6,76.8c26,40,39,95.6,39,166.9L1581,744.7
		L1581,744.7z"/>
</g>
<path class="st1" d="M1590.1,978.6V831.8c0-4.5,4-7.7,7.7-5.9c17.2,8,32.4,12,45.7,12c44.9,0,75.3-28.6,91.1-85.9
	c1.5-5.5-3.6-10.3-8.1-7.5c-22.2,13.8-44,20.7-65.3,20.7c-37.3,0-68-17.1-92.1-51.2c-24.1-34.2-36.2-77.6-36.2-130.4v-304
	c0-3.5,2.5-6.4,5.6-6.4h139.1c3.1,0,5.6,2.9,5.6,6.4v258.9c0,29.4,9.9,44.1,29.8,44.1c19,0,28.6-16.2,28.6-48.5V279.6
	c0-3.5,2.5-6.4,5.6-6.4h139.1c3.1,0,5.6,2.9,5.6,6.4v434.1c0,82.2-18.8,148.5-56.3,199c-44.8,60.1-98.9,90.1-162.4,90.1
	c-26.7,0-53.3-6.1-79.7-18.2C1591.5,983.6,1590.1,981.2,1590.1,978.6z"/>
</svg>
